<?xml version="1.0" standalone="no"?>
<!DOCTYPE svg PUBLIC "-//W3C//DTD SVG 20010904//EN"
 "http://www.w3.org/TR/2001/REC-SVG-20010904/DTD/svg10.dtd">
<svg version="1.0" xmlns="http://www.w3.org/2000/svg"
 width="512.000000pt" height="512.000000pt" viewBox="0 0 512.000000 512.000000"
 preserveAspectRatio="xMidYMid meet">
<metadata>
Created by potrace 1.14, written by Peter Selinger 2001-2017
</metadata>
<g transform="translate(0.000000,512.000000) scale(0.100000,-0.100000)"
fill="#000000" stroke="none">
<path d="M485 5100 c-182 -49 -333 -170 -413 -331 -76 -154 -72 -45 -69 -1749
2 -839 6 -1540 11 -1559 16 -70 68 -182 110 -240 36 -49 145 -145 199 -175
126 -70 168 -79 412 -84 121 -2 221 -5 222 -6 2 -1 3 -189 4 -417 1 -455 1
-457 61 -503 88 -66 163 -41 332 112 17 15 41 34 52 42 12 8 45 36 75 62 45
38 383 320 548 457 24 20 49 41 55 46 6 6 49 42 96 80 47 38 99 82 115 97 l30
28 1100 1 c605 0 1107 2 1115 3 8 2 35 6 60 9 93 11 220 75 311 156 93 83 181
239 197 350 4 25 7 737 7 1581 l0 1535 -23 69 c-43 129 -77 183 -179 282 -72
71 -173 126 -283 154 -73 19 -128 19 -2075 19 -1916 -1 -2003 -2 -2070 -19z
m4073 -312 c96 -24 170 -88 215 -186 l22 -47 3 -1485 c2 -1112 0 -1499 -9
-1540 -26 -120 -132 -222 -254 -244 -16 -3 -540 -6 -1162 -6 -876 0 -1139 -3
-1160 -13 -23 -10 -211 -161 -388 -312 -22 -18 -114 -95 -205 -170 -91 -75
-176 -147 -190 -158 -96 -82 -139 -117 -144 -117 -3 0 -6 144 -6 320 0 352 -2
365 -59 412 -41 35 -65 37 -386 40 -268 3 -270 3 -326 29 -90 42 -154 118
-177 209 -16 65 -17 2971 -1 3038 14 55 61 129 107 167 18 15 59 38 90 51 l57
23 1963 1 c1474 0 1974 -3 2010 -12z"/>
</g>
</svg>
